<?xml version="1.0" encoding="utf-8"?>
<!-- Generator: Adobe Illustrator 23.0.3, SVG Export Plug-In . SVG Version: 6.00 Build 0)  -->
<svg version="1.1" id="Capa_1" xmlns="http://www.w3.org/2000/svg" xmlns:xlink="http://www.w3.org/1999/xlink" x="0px" y="0px"
	 viewBox="0 0 915 359" style="enable-background:new 0 0 915 359;" xml:space="preserve">
<style type="text/css">
	.st0{fill:#DBE11F;}
	.st1{fill:#75C140;}
	.st2{fill:#82C53C;}
	.st3{fill:#8EC938;}
	.st4{fill:#A8D12F;}
	.st5{fill:#9BCD34;}
	.st6{fill:#B5D52B;}
	.st7{fill:#CEDD23;}
	.st8{fill:#C1D927;}
	.st9{fill:#68BD44;}
	.st10{fill:#352B26;}
</style>
<g>
	<g>
		<path id="path14_1_" class="st0" d="M121.18,114.46c0.8,0,56.66,0,57.46,0c-0.36-0.71-28.28-56.57-28.73-57.46
			C149.47,57.88,121.54,113.75,121.18,114.46"/>
		<path id="path16_1_" class="st1" d="M184.36,240.82c0.8,0,56.66,0,57.46,0c-0.36-0.71-28.29-56.6-28.73-57.48
			C212.65,184.22,184.72,240.11,184.36,240.82"/>
		<path id="path18_1_" class="st2" d="M152.77,181.14c0.36,0.72,28.29,56.61,28.74,57.49c0.44-0.88,28.37-56.77,28.72-57.49
			C209.43,181.14,153.57,181.14,152.77,181.14"/>
		<path id="path20_1_" class="st3" d="M121.18,240.82c0.8,0,56.66,0,57.46,0c-0.36-0.71-28.3-56.64-28.73-57.48
			C149.48,184.18,121.54,240.11,121.18,240.82"/>
		<path id="path22_1_" class="st4" d="M58,240.82c0.8,0,56.65,0,57.46,0c-0.36-0.71-28.31-56.64-28.73-57.48
			C86.3,184.18,58.36,240.11,58,240.82"/>
		<path id="path24_1_" class="st5" d="M89.6,181.14c0.35,0.72,28.29,56.64,28.72,57.49c0.43-0.85,28.37-56.77,28.73-57.49
			C146.25,181.14,90.39,181.14,89.6,181.14"/>
		<path id="path26_1_" class="st6" d="M152.77,177.6c0.8,0,56.66,0,57.46,0c-0.36-0.71-28.28-56.61-28.72-57.49
			C181.06,120.99,153.13,176.89,152.77,177.6"/>
		<path id="path28_1_" class="st7" d="M89.6,177.6c0.8,0,56.65,0,57.45,0c-0.36-0.72-28.3-56.65-28.73-57.49
			C117.89,120.96,89.95,176.88,89.6,177.6"/>
		<path id="path30_1_" class="st8" d="M121.18,117.92c0.37,0.72,28.3,56.64,28.73,57.5c0.43-0.85,28.37-56.78,28.73-57.5
			C177.84,117.92,121.98,117.92,121.18,117.92"/>
		<path id="path32_1_" class="st9" d="M121.18,244.37c0.37,0.71,28.3,56.64,28.73,57.49c0.43-0.85,28.37-56.78,28.73-57.49
			C177.84,244.37,121.98,244.37,121.18,244.37"/>
	</g>
	<g>
		<polygon class="st10" points="306.55,240.61 287.27,240.61 287.27,146.59 286.3,147.25 284.07,148.76 270.32,158.09 
			270.32,138.36 306.55,116.96 		"/>
		<path class="st10" d="M361.54,243.38c-20.17,0-40.51-12.96-40.51-41.92v-43.98c0-28.96,20.34-41.93,40.51-41.93
			c20.17,0,40.51,12.97,40.51,41.93v43.98C402.05,230.42,381.71,243.38,361.54,243.38 M361.54,133.64
			c-10.57,0-21.23,6.94-21.23,22.43v46.8c0,15.5,10.66,22.43,21.23,22.43c10.56,0,21.22-6.93,21.22-22.43v-46.8
			C382.76,140.58,372.1,133.64,361.54,133.64"/>
		<path class="st10" d="M449.47,240.61h-19.29V118.04h52.92c26.04,0,43.54,16.61,43.54,41.33s-17.51,41.31-43.54,41.31h-33.64
			V240.61z M449.47,136.12v46.48h31.83c19.24,0,26.06-12.52,26.06-23.23c0-10.73-6.83-23.26-26.06-23.26H449.47z"/>
		<rect x="536.34" y="144.56" class="st10" width="19.37" height="96.05"/>
		<path class="st10" d="M546.02,114.14c-6,0-10.89,4.89-10.89,10.9c0,6.01,4.88,10.91,10.89,10.91c6.02,0,10.92-4.89,10.92-10.91
			C556.94,119.03,552.04,114.14,546.02,114.14z"/>
		<path class="st10" d="M620.73,142.07c-12.56,0-21.91,5.45-27.37,14.42c-2,3.29-3.76,7.08-3.76,7.08v-18.88h-19.25v95.92h19.25
			V186.8c0-15.48,9.77-25.48,24.89-25.48c15.96,0,24.06,8.71,24.06,25.88v53.42h19.26v-58.05
			C657.8,159.85,641.52,142.07,620.73,142.07z"/>
		<path class="st10" d="M721.01,142.54c-34.16,0-52.6,25.86-52.6,50.2c0,24.33,18.43,50.19,52.59,50.19h0h0
			c16.03-0.19,31.25-7.8,42.85-21.44l0.62-0.73L749,212.13l-0.42,0.52c-7.52,9.32-17.26,14.24-28.17,14.24
			c-16.23,0-29.9-11.76-31.13-26.78l-0.12-1.38h81.23v-2.56C770.4,159.18,741.52,142.54,721.01,142.54z M688.95,183.92l0.36-1.56
			c3.46-14.67,14.53-23.78,28.88-23.78c14.41,0,25.64,8.86,30.05,23.7l0.49,1.64H688.95z"/>
		<path class="st10" d="M832.8,186.07l-21.16-4.04c-11.97-2.09-13.36-7.32-13.36-11.08c0-8.59,9.43-13.08,18.74-13.08
			c8.49,0,16.94,3.29,25.13,9.77l0.98,0.77l10.88-13.44l-1.13-0.77c-12.27-8.38-23.51-12.11-36.46-12.11
			c-24.64,0-37.54,15.64-37.54,31.08c0,12.44,5.86,21.81,34.45,27.06l11.9,2.23c8.88,1.64,13.38,5.71,13.38,12.08
			c0,6.33-8.11,13.1-20.18,13.1c-9.94,0-21.64-5.14-29.8-13.09l-0.9-0.88l-13.13,13.34l1.08,0.87
			c13.06,10.59,26.32,15.52,41.74,15.52c27.88,0,40.59-16.64,40.59-32.1C858,197.27,849.99,189.25,832.8,186.07z"/>
	</g>
</g>
</svg>
