<svg xmlns="http://www.w3.org/2000/svg" width="342.161" height="71.529" viewBox="0 0 342.161 71.529">
  <g id="Grupo_101" data-name="Grupo 101" transform="translate(-96.952 -111.281)">
    <g id="Grupo_69" data-name="Grupo 69" transform="translate(96.952 111.281)">
      <g id="Grupo_67" data-name="Grupo 67">
        <path id="path14" d="M86.18,16.785h16.785C102.86,16.578,94.7.26,94.573,0c-.128.257-8.288,16.578-8.393,16.785" transform="translate(-67.724)" fill="#dbe11f"/>
        <path id="path16" d="M172.361,189.124h16.785c-.105-.208-8.264-16.534-8.393-16.791-.129.257-8.288,16.584-8.393,16.791" transform="translate(-135.448 -135.426)" fill="#75c140"/>
        <path id="path18" d="M129.271,169.333c.105.21,8.264,16.537,8.4,16.794.129-.257,8.288-16.584,8.39-16.794H129.271" transform="translate(-101.586 -133.069)" fill="#82c53c"/>
        <path id="path20" d="M86.18,189.124h16.785c-.105-.208-8.267-16.546-8.393-16.791-.126.245-8.288,16.584-8.393,16.791" transform="translate(-67.724 -135.426)" fill="#8ec938"/>
        <path id="path22" d="M0,189.124H16.785c-.105-.208-8.27-16.546-8.393-16.791C8.267,172.578.105,188.917,0,189.124" transform="translate(0 -135.426)" fill="#a8d12f"/>
        <path id="path24" d="M43.1,169.333c.1.21,8.264,16.546,8.39,16.794.126-.248,8.288-16.584,8.393-16.794H43.1" transform="translate(-33.873 -133.069)" fill="#9bcd34"/>
        <path id="path26" d="M129.271,102.879h16.785c-.105-.208-8.261-16.537-8.39-16.794-.131.257-8.29,16.587-8.4,16.794" transform="translate(-101.586 -67.649)" fill="#b5d52b"/>
        <path id="path28" d="M43.1,102.879H59.886c-.105-.21-8.267-16.549-8.393-16.794-.125.248-8.288,16.584-8.39,16.794" transform="translate(-33.873 -67.649)" fill="#cedd23"/>
        <path id="path30" d="M86.18,83.1c.108.21,8.267,16.546,8.393,16.8.126-.248,8.288-16.587,8.393-16.8H86.18" transform="translate(-67.724 -65.302)" fill="#c1d927"/>
        <path id="path32" d="M86.18,255.581c.108.208,8.267,16.546,8.393,16.794.126-.248,8.288-16.587,8.393-16.794H86.18" transform="translate(-67.724 -200.846)" fill="#68bd44"/>
      </g>
      <g id="Grupo_68" data-name="Grupo 68" transform="translate(62.024 16.692)">
        <path id="Trazado_18" data-name="Trazado 18" d="M300.2,117.909h-5.632V90.444l-.283.193-.651.441L289.614,93.8V88.04L300.2,81.788Z" transform="translate(-289.614 -80.964)" fill="#352b26"/>
        <path id="Trazado_19" data-name="Trazado 19" d="M370.619,117.207c-5.892,0-11.834-3.786-11.834-12.246V92.114c0-8.46,5.942-12.249,11.834-12.249s11.834,3.789,11.834,12.249v12.848c0,8.46-5.942,12.246-11.834,12.246m0-32.058c-3.088,0-6.2,2.027-6.2,6.552v13.671c0,4.528,3.114,6.552,6.2,6.552s6.2-2.024,6.2-6.552V91.7c0-4.525-3.114-6.552-6.2-6.552" transform="translate(-343.971 -79.453)" fill="#352b26"/>
        <path id="Trazado_20" data-name="Trazado 20" d="M513.305,119.067H507.67V83.261h15.459c7.607,0,12.719,4.852,12.719,12.073S530.733,107.4,523.129,107.4H513.3v11.664Zm0-30.524v13.578h9.3c5.62,0,7.613-3.657,7.613-6.786s-2-6.795-7.613-6.795h-9.3Z" transform="translate(-460.971 -82.122)" fill="#352b26"/>
        <rect id="Rectángulo_220" data-name="Rectángulo 220" width="5.658" height="28.058" transform="translate(77.711 8.886)" fill="#352b26"/>
        <path id="Trazado_21" data-name="Trazado 21" d="M654.008,77.942a3.186,3.186,0,1,0,3.19,3.184A3.187,3.187,0,0,0,654.008,77.942Z" transform="translate(-573.47 -77.942)" fill="#352b26"/>
        <path id="Trazado_22" data-name="Trazado 22" d="M713.585,116.039a8.884,8.884,0,0,0-8,4.213c-.584.961-1.1,2.068-1.1,2.068V116.8h-5.623v28.02h5.623V129.106c0-4.522,2.854-7.443,7.271-7.443,4.662,0,7.028,2.544,7.028,7.56v15.605h5.626V127.87C724.414,121.233,719.658,116.039,713.585,116.039Z" transform="translate(-611.222 -107.88)" fill="#352b26"/>
        <path id="Trazado_23" data-name="Trazado 23" d="M847.993,116.68c-9.979,0-15.365,7.555-15.365,14.665s5.384,14.662,15.363,14.662h0a16.708,16.708,0,0,0,12.517-6.263l.181-.213-4.519-2.521-.123.152a10.385,10.385,0,0,1-8.229,4.16c-4.741,0-8.734-3.436-9.094-7.823l-.035-.4h23.729v-.748C862.421,121.541,853.984,116.68,847.993,116.68Zm-9.365,12.088.105-.456a8.466,8.466,0,0,1,8.437-6.947c4.21,0,7.49,2.588,8.778,6.923l.143.479Z" transform="translate(-716.335 -108.384)" fill="#352b26"/>
        <path id="Trazado_24" data-name="Trazado 24" d="M994.477,128.914l-6.181-1.18c-3.5-.611-3.9-2.138-3.9-3.237,0-2.509,2.755-3.821,5.474-3.821a11.815,11.815,0,0,1,7.341,2.854l.286.225,3.178-3.926-.33-.225a18.02,18.02,0,0,0-10.651-3.537c-7.2,0-10.966,4.569-10.966,9.079,0,3.634,1.712,6.371,10.064,7.9l3.476.651c2.594.479,3.909,1.668,3.909,3.529s-2.369,3.827-5.9,3.827a13.326,13.326,0,0,1-8.705-3.824l-.263-.257-3.835,3.9.315.254a18.544,18.544,0,0,0,12.193,4.534c8.145,0,11.857-4.861,11.857-9.377C1001.838,132.186,999.5,129.843,994.477,128.914Z" transform="translate(-830.163 -107.902)" fill="#352b26"/>
      </g>
    </g>
    <g id="Grupo_70" data-name="Grupo 70" transform="translate(346.899 134.75)">
      <path id="Trazado_25" data-name="Trazado 25" d="M1181.882,147.952l-3.826-11.127h-7.691v11.127H1167.1V120.015h10.751a8.125,8.125,0,0,1,4.591,1.055,4.82,4.82,0,0,1,1.993,2.8,18.306,18.306,0,0,1,.463,4.547,14.882,14.882,0,0,1-.725,5.035,4.634,4.634,0,0,1-3.06,2.8l4.228,11.7Zm-1.852-14.557a2.713,2.713,0,0,0,1.349-1.726,13.4,13.4,0,0,0,.3-3.249,14.248,14.248,0,0,0-.282-3.269,2.675,2.675,0,0,0-1.268-1.706,6.32,6.32,0,0,0-3.121-.589h-6.644v11.127h6.4A6.911,6.911,0,0,0,1180.03,133.395Z" transform="translate(-1167.104 -117.781)" fill="#68bd44"/>
      <path id="Trazado_26" data-name="Trazado 26" d="M1270.236,172.287q-1.408-1.319-1.408-4.731a10.677,10.677,0,0,1,.5-3.676,3.288,3.288,0,0,1,1.712-1.888,8.366,8.366,0,0,1,3.462-.569q1.128,0,6.564.2v-1.422a11.345,11.345,0,0,0-.4-3.594,2.189,2.189,0,0,0-1.49-1.4,13.918,13.918,0,0,0-3.584-.325q-1.086,0-2.8.121t-2.8.284v-2.477a35.516,35.516,0,0,1,6.564-.569,12.571,12.571,0,0,1,4.832.71,3.84,3.84,0,0,1,2.174,2.375,16.049,16.049,0,0,1,.564,4.873v13.075h-2.779l-.12-2.924h-.241a4.042,4.042,0,0,1-2.316,2.6,10.259,10.259,0,0,1-3.8.65Q1271.645,173.606,1270.236,172.287Zm8.477-1.645a2.542,2.542,0,0,0,1.591-1.421,10.255,10.255,0,0,0,.765-4.263V163.7h-5.719a7.052,7.052,0,0,0-2.254.264,1.635,1.635,0,0,0-1.008,1.015,7.292,7.292,0,0,0-.282,2.375,6.138,6.138,0,0,0,.323,2.294,1.831,1.831,0,0,0,1.188,1.035,8.87,8.87,0,0,0,2.6.284A9.846,9.846,0,0,0,1278.713,170.642Z" transform="translate(-1247.043 -143.11)" fill="#68bd44"/>
      <path id="Trazado_27" data-name="Trazado 27" d="M1365.4,139.186a4.9,4.9,0,0,1-1.993-3.147,29.035,29.035,0,0,1-.563-6.6,29.039,29.039,0,0,1,.563-6.6,5.113,5.113,0,0,1,1.973-3.188,7.555,7.555,0,0,1,4.148-.934,8.7,8.7,0,0,1,3.7.67,4.251,4.251,0,0,1,2.094,2.254h.2V109.584h3.06v30.171h-2.739l-.161-2.924h-.2a4.176,4.176,0,0,1-2.195,2.579,9.19,9.19,0,0,1-3.725.67A7.937,7.937,0,0,1,1365.4,139.186Zm8.215-2.436a3.039,3.039,0,0,0,1.43-1.787,10.163,10.163,0,0,0,.4-2.315q.08-1.258.081-3.533,0-1.746-.081-2.863a9.934,9.934,0,0,0-.322-1.969,3.419,3.419,0,0,0-1.47-2.153,5.79,5.79,0,0,0-3-.65,6.91,6.91,0,0,0-3.161.528,2.909,2.909,0,0,0-1.268,2.111,29.888,29.888,0,0,0-.323,5.279,28.159,28.159,0,0,0,.343,5.279,2.942,2.942,0,0,0,1.309,2.111,7.152,7.152,0,0,0,3.221.528A5.9,5.9,0,0,0,1373.611,136.75Z" transform="translate(-1320.921 -109.584)" fill="#68bd44"/>
      <path id="Trazado_28" data-name="Trazado 28" d="M1458.638,172.287q-1.409-1.319-1.409-4.731a10.676,10.676,0,0,1,.5-3.676,3.289,3.289,0,0,1,1.712-1.888,8.369,8.369,0,0,1,3.463-.569q1.127,0,6.564.2v-1.422a11.345,11.345,0,0,0-.4-3.594,2.188,2.188,0,0,0-1.49-1.4,13.92,13.92,0,0,0-3.584-.325q-1.086,0-2.8.121t-2.8.284v-2.477a35.52,35.52,0,0,1,6.564-.569,12.57,12.57,0,0,1,4.832.71,3.84,3.84,0,0,1,2.174,2.375,16.049,16.049,0,0,1,.564,4.873v13.075h-2.779l-.12-2.924h-.242a4.041,4.041,0,0,1-2.316,2.6,10.259,10.259,0,0,1-3.8.65Q1460.046,173.606,1458.638,172.287Zm8.477-1.645a2.541,2.541,0,0,0,1.591-1.421,10.251,10.251,0,0,0,.765-4.263V163.7h-5.719a7.052,7.052,0,0,0-2.254.264,1.634,1.634,0,0,0-1.007,1.015,7.279,7.279,0,0,0-.282,2.375,6.145,6.145,0,0,0,.322,2.294,1.832,1.832,0,0,0,1.188,1.035,8.87,8.87,0,0,0,2.6.284A9.844,9.844,0,0,0,1467.114,170.642Z" transform="translate(-1395.096 -143.11)" fill="#68bd44"/>
      <path id="Trazado_29" data-name="Trazado 29" d="M1557.555,152.572l.16,3.939h.2a5.252,5.252,0,0,1,2.154-3.35,7.5,7.5,0,0,1,3.926-.914v3.126a6.8,6.8,0,0,0-3.745.873,4.573,4.573,0,0,0-1.853,2.619,16.787,16.787,0,0,0-.523,4.67v9.746h-3.061v-20.71Z" transform="translate(-1471.784 -143.11)" fill="#68bd44"/>
    </g>
  </g>
</svg>
